
<svg xmlns="http://www.w3.org/2000/svg" xmlns:xlink="http://www.w3.org/1999/xlink" width="500" zoomAndPan="magnify" viewBox="0 0 375 187.499995" height="250" preserveAspectRatio="xMidYMid meet" version="1.0"><defs><g/></defs><g fill="#ffffff" fill-opacity="1"><g transform="translate(17.523099, 139.611187)"><g><path d="M 23.609375 -53.125 L 22.140625 -62.46875 C 21.828125 -64.5 20.984375 -66.019531 19.609375 -67.03125 C 18.242188 -68.050781 16.585938 -68.40625 14.640625 -68.09375 L 9 -67.21875 L 12.484375 -44.859375 L 17.71875 -45.671875 C 19.976562 -46.023438 21.597656 -46.875 22.578125 -48.21875 C 23.566406 -49.570312 23.910156 -51.207031 23.609375 -53.125 Z M 43.625 -6.875 L 33.265625 -5.265625 C 32.628906 -5.160156 32.003906 -5.28125 31.390625 -5.625 C 30.773438 -5.976562 30.40625 -6.566406 30.28125 -7.390625 L 28.453125 -19.15625 C 27.597656 -24.601562 26.003906 -28.398438 23.671875 -30.546875 C 21.335938 -32.703125 18.210938 -33.609375 14.296875 -33.265625 L 18.703125 -5.046875 C 18.921875 -3.660156 18.414062 -2.875 17.1875 -2.6875 L 5.90625 -0.921875 C 4.675781 -0.734375 3.953125 -1.332031 3.734375 -2.71875 L -7.765625 -76.375 C -7.992188 -77.851562 -7.472656 -78.691406 -6.203125 -78.890625 L 13.671875 -81.984375 C 16.566406 -82.441406 19.335938 -82.332031 21.984375 -81.65625 C 24.628906 -80.988281 27.015625 -79.859375 29.140625 -78.265625 C 31.273438 -76.679688 33.035156 -74.742188 34.421875 -72.453125 C 35.816406 -70.171875 36.734375 -67.625 37.171875 -64.8125 L 38.4375 -56.765625 C 38.957031 -53.421875 38.628906 -50.457031 37.453125 -47.875 C 36.285156 -45.289062 34.675781 -43.050781 32.625 -41.15625 C 35.507812 -39.40625 37.859375 -36.796875 39.671875 -33.328125 C 41.484375 -29.867188 42.832031 -25.316406 43.71875 -19.671875 L 45.296875 -9.546875 C 45.367188 -9.054688 45.296875 -8.515625 45.078125 -7.921875 C 44.859375 -7.335938 44.375 -6.988281 43.625 -6.875 Z M 43.625 -6.875 "/></g></g></g><g fill="#ffffff" fill-opacity="1"><g transform="translate(65.352124, 132.365289)"><g><path d="M 10.125 -78.390625 L 18.875 -4.421875 C 19.039062 -2.984375 18.503906 -2.191406 17.265625 -2.046875 L 5.9375 -0.703125 C 4.695312 -0.554688 3.992188 -1.203125 3.828125 -2.640625 L -4.921875 -76.609375 C -5.085938 -78.085938 -4.550781 -78.898438 -3.3125 -79.046875 L 8.015625 -80.390625 C 9.253906 -80.535156 9.957031 -79.867188 10.125 -78.390625 Z M 10.125 -78.390625 "/></g></g></g><g fill="#ffffff" fill-opacity="1"><g transform="translate(87.172264, 129.517276)"><g><path d="M 13.96875 -66.359375 L 18.09375 -15.234375 L 24 -15.71875 C 25.894531 -15.9375 27.351562 -16.742188 28.375 -18.140625 C 29.40625 -19.546875 29.847656 -21.21875 29.703125 -23.15625 L 26.6875 -60.375 C 26.5 -62.75 25.75 -64.453125 24.4375 -65.484375 C 23.132812 -66.523438 21.519531 -66.96875 19.59375 -66.8125 Z M 3.921875 -2.5 L -2.078125 -76.734375 C -2.191406 -78.222656 -1.601562 -79.019531 -0.3125 -79.125 L 19.40625 -80.71875 C 23.332031 -80.988281 26.921875 -80.472656 30.171875 -79.171875 C 33.421875 -77.878906 36.070312 -75.816406 38.125 -72.984375 C 40.1875 -70.148438 41.394531 -66.5625 41.75 -62.21875 L 44.84375 -23.921875 C 45.195312 -19.566406 44.582031 -15.828125 43 -12.703125 C 41.425781 -9.585938 39.140625 -7.125 36.140625 -5.3125 C 33.140625 -3.507812 29.710938 -2.429688 25.859375 -2.078125 L 6.03125 -0.484375 C 4.738281 -0.378906 4.035156 -1.050781 3.921875 -2.5 Z M 3.921875 -2.5 "/></g></g></g><g fill="#ffffff" fill-opacity="1"><g transform="translate(134.554361, 125.645723)"><g><path d="M 17.296875 -65.578125 L 18.84375 -14.3125 L 24.765625 -14.5 C 26.660156 -14.625 28.160156 -15.359375 29.265625 -16.703125 C 30.367188 -18.046875 30.890625 -19.6875 30.828125 -21.625 L 29.703125 -58.953125 C 29.628906 -61.335938 28.96875 -63.082031 27.71875 -64.1875 C 26.46875 -65.289062 24.875 -65.8125 22.9375 -65.75 Z M 4.046875 -2.296875 L 1.796875 -76.75 C 1.753906 -78.238281 2.378906 -79.003906 3.671875 -79.046875 L 23.4375 -79.640625 C 27.382812 -79.710938 30.945312 -79.015625 34.125 -77.546875 C 37.3125 -76.085938 39.859375 -73.894531 41.765625 -70.96875 C 43.679688 -68.039062 44.707031 -64.394531 44.84375 -60.03125 L 46 -21.625 C 46.132812 -17.269531 45.332031 -13.570312 43.59375 -10.53125 C 41.863281 -7.488281 39.453125 -5.140625 36.359375 -3.484375 C 33.273438 -1.835938 29.796875 -0.9375 25.921875 -0.78125 L 6.046875 -0.1875 C 4.753906 -0.144531 4.085938 -0.847656 4.046875 -2.296875 Z M 4.046875 -2.296875 "/></g></g></g><g fill="#ffffff" fill-opacity="1"><g transform="translate(182.228122, 124.260763)"><g><path d="M 38.53125 0.625 L 6.046875 0.09375 C 4.753906 0.0703125 4.117188 -0.660156 4.140625 -2.109375 L 5.34375 -76.578125 C 5.363281 -78.066406 6 -78.800781 7.25 -78.78125 L 18.65625 -78.59375 C 19.90625 -78.570312 20.519531 -77.816406 20.5 -76.328125 L 19.484375 -13.421875 L 38.75 -13.109375 C 39.8125 -13.097656 40.332031 -12.445312 40.3125 -11.15625 L 40.15625 -1.40625 C 40.132812 -0.0390625 39.59375 0.632812 38.53125 0.625 Z M 38.53125 0.625 "/></g></g></g><g fill="#ffffff" fill-opacity="1"><g transform="translate(221.94562, 124.843093)"><g><path d="M 20.046875 -12.5625 L 41.140625 -11.3125 C 41.597656 -11.28125 41.976562 -11.097656 42.28125 -10.765625 C 42.582031 -10.429688 42.71875 -9.941406 42.6875 -9.296875 L 42.109375 0.484375 C 42.066406 1.171875 41.875 1.664062 41.53125 1.96875 C 41.1875 2.28125 40.785156 2.421875 40.328125 2.390625 L 6.03125 0.359375 C 4.75 0.285156 4.148438 -0.472656 4.234375 -1.921875 L 8.640625 -76.265625 C 8.734375 -77.753906 9.421875 -78.460938 10.703125 -78.390625 L 44.71875 -76.375 C 45.78125 -76.3125 46.269531 -75.578125 46.1875 -74.171875 L 45.609375 -64.5 C 45.523438 -63.132812 44.953125 -62.484375 43.890625 -62.546875 L 23.078125 -63.78125 L 22 -45.515625 L 38.609375 -44.53125 C 39.109375 -44.5 39.53125 -44.320312 39.875 -44 C 40.21875 -43.675781 40.367188 -43.15625 40.328125 -42.4375 L 39.75 -32.703125 C 39.707031 -32.015625 39.503906 -31.53125 39.140625 -31.25 C 38.773438 -30.96875 38.328125 -30.84375 37.796875 -30.875 L 21.1875 -31.859375 Z M 20.046875 -12.5625 "/></g></g></g><g fill="#ffffff" fill-opacity="1"><g transform="translate(263.434612, 127.18381)"><g><path d="M 36.546875 -45.203125 L 37.546875 -54.625 C 37.765625 -56.664062 37.34375 -58.351562 36.28125 -59.6875 C 35.21875 -61.019531 33.707031 -61.789062 31.75 -62 L 26.078125 -62.609375 L 23.671875 -40.125 L 28.9375 -39.5625 C 31.207031 -39.3125 32.988281 -39.707031 34.28125 -40.75 C 35.582031 -41.789062 36.335938 -43.273438 36.546875 -45.203125 Z M 43.921875 4.640625 L 33.5 3.53125 C 32.851562 3.457031 32.28125 3.175781 31.78125 2.6875 C 31.28125 2.195312 31.078125 1.535156 31.171875 0.703125 L 32.4375 -11.140625 C 33.019531 -16.617188 32.460938 -20.703125 30.765625 -23.390625 C 29.066406 -26.078125 26.285156 -27.765625 22.421875 -28.453125 L 19.375 -0.046875 C 19.226562 1.347656 18.535156 1.976562 17.296875 1.84375 L 5.953125 0.640625 C 4.710938 0.503906 4.164062 -0.257812 4.3125 -1.65625 L 12.25 -75.78125 C 12.414062 -77.257812 13.140625 -77.929688 14.421875 -77.796875 L 34.40625 -75.65625 C 37.320312 -75.34375 39.96875 -74.519531 42.34375 -73.1875 C 44.726562 -71.863281 46.742188 -70.160156 48.390625 -68.078125 C 50.035156 -66.003906 51.234375 -63.679688 51.984375 -61.109375 C 52.742188 -58.535156 52.972656 -55.835938 52.671875 -53.015625 L 51.8125 -44.90625 C 51.445312 -41.550781 50.363281 -38.769531 48.5625 -36.5625 C 46.769531 -34.363281 44.640625 -32.613281 42.171875 -31.3125 C 44.515625 -28.882812 46.109375 -25.757812 46.953125 -21.9375 C 47.796875 -18.125 47.914062 -13.378906 47.3125 -7.703125 L 46.21875 2.484375 C 46.164062 2.984375 45.957031 3.488281 45.59375 4 C 45.226562 4.507812 44.671875 4.722656 43.921875 4.640625 Z M 43.921875 4.640625 "/></g></g></g><g fill="#ffffff" fill-opacity="1"><g transform="translate(311.079254, 132.268169)"><g><path d="M 35.78125 -26.4375 L 31.203125 2.671875 C 30.972656 4.128906 30.3125 4.769531 29.21875 4.59375 L 17.5625 2.765625 C 16.4375 2.585938 15.988281 1.769531 16.21875 0.3125 L 20.8125 -28.859375 C 18.363281 -30.128906 16.25 -31.78125 14.46875 -33.8125 C 12.6875 -35.84375 11.40625 -38.175781 10.625 -40.8125 C 9.851562 -43.457031 9.707031 -46.300781 10.1875 -49.34375 L 14.484375 -76.265625 C 14.546875 -76.628906 14.6875 -76.921875 14.90625 -77.140625 C 15.132812 -77.359375 15.453125 -77.4375 15.859375 -77.375 L 28.25 -75.421875 C 28.707031 -75.347656 29.035156 -75.164062 29.234375 -74.875 C 29.441406 -74.59375 29.519531 -74.300781 29.46875 -74 L 25.34375 -47.765625 C 25.0625 -46.003906 25.320312 -44.351562 26.125 -42.8125 C 26.925781 -41.28125 28.304688 -40.363281 30.265625 -40.0625 C 32.210938 -39.75 33.800781 -40.144531 35.03125 -41.25 C 36.257812 -42.351562 37.007812 -43.78125 37.28125 -45.53125 L 41.453125 -72.015625 C 41.515625 -72.378906 41.664062 -72.671875 41.90625 -72.890625 C 42.144531 -73.109375 42.472656 -73.1875 42.890625 -73.125 L 55.515625 -71.125 C 56.296875 -71.007812 56.625 -70.535156 56.5 -69.703125 L 52.25 -42.734375 C 51.757812 -39.609375 50.726562 -36.90625 49.15625 -34.625 C 47.582031 -32.351562 45.640625 -30.535156 43.328125 -29.171875 C 41.023438 -27.804688 38.507812 -26.894531 35.78125 -26.4375 Z M 35.78125 -26.4375 "/></g></g></g></svg>